<?xml version="1.0" encoding="utf-8"?>
<!-- Generator: Adobe Illustrator 23.0.3, SVG Export Plug-In . SVG Version: 6.00 Build 0)  -->
<svg version="1.1" id="Layer_1" xmlns="http://www.w3.org/2000/svg" xmlns:xlink="http://www.w3.org/1999/xlink" x="0px" y="0px"
	 viewBox="0 0 2461.52 2443.65" style="enable-background:new 0 0 2461.52 2443.65;" xml:space="preserve">
<style type="text/css">
	.st0{fill:#FFFFFF;}
	.st1{fill:url(#SVGID_1_);}
	.st2{fill:url(#SVGID_2_);}
</style>
<path class="st0" d="M2956.02,731.28c44.67,5.34,88.71,18.56,131.28,37.29c137.13,60.31,246.35,155.9,341.51,269.54
	c86.84,103.7,156.95,218.33,219.59,337.67c56.64,107.92,111.45,216.81,167.06,325.28c0.96,1.87,2.08,3.69,2.78,5.66
	c3.58,10.15,13.23,19.98,4.65,31.25c-8.57,11.25-20.91,9.05-32.87,6.47c-42.41-9.15-85.02-17.41-127.22-27.44
	c-115.27-27.4-230.25-56.95-335.18-113.74c-237.66-128.64-385.59-324.03-429.22-593.3c-12.5-77.12-11.2-155.09,6.6-231.92
	C2913.12,742.9,2925.88,731.2,2956.02,731.28z"/>
<path class="st0" d="M3476.77,1734.76c95.03,1.52,188.03,16.99,279.73,41.17c6.75,1.78,13.42,4.1,19.82,6.87
	c11.79,5.11,12.02,12.51,3.08,20.82c-4.62,4.29-9.35,8.51-14.41,12.25c-94.62,69.92-188.34,141.09-293.16,195.86
	c-115.13,60.16-234.63,106.62-364.97,119.38c-68.54,6.71-137.07,5.95-204.35-11.62c-16.21-4.23-32.34-9.42-47.76-15.92
	c-43.24-18.23-48.93-41.68-18.93-76.97c130.68-153.73,297.92-242.82,494.72-278.85C3378.76,1738.92,3427.6,1734.56,3476.77,1734.76z
	"/>
<path class="st0" d="M5067.47,1129.68c-43.63-10.99-89.48-14.38-135.94-12.11c-149.63,7.3-285.8,57.52-415.3,129.63
	c-118.18,65.8-224.64,147.79-325.79,236.85c-91.48,80.54-181.59,162.64-272.31,244.05c-1.56,1.4-3.26,2.7-4.62,4.29
	c-6.97,8.2-19.5,13.93-15.52,27.52c3.98,13.57,16.29,15.92,28.39,17.79c42.87,6.62,85.63,14.13,128.62,19.85
	c117.44,15.62,235.4,29.13,353.7,13.61c267.94-35.17,475.95-164.76,612.97-400.63c39.24-67.56,65.9-140.83,76.75-218.95
	C5103.38,1155.87,5095.65,1140.39,5067.47,1129.68z"/>
<path class="st0" d="M4222.39,1880.67c-89.29-32.56-181.67-51.36-275.96-61.56c-6.94-0.75-14-0.97-20.96-0.67
	c-12.84,0.56-15.7,7.39-10.32,18.35c2.78,5.65,5.69,11.29,9.07,16.59c63.37,99.13,125.45,199.09,203.76,287.72
	c86.01,97.34,181.01,183.45,298.17,241.97c61.61,30.77,125.88,54.56,195,62.2c16.65,1.84,33.57,2.77,50.3,2.21
	c46.9-1.56,60.6-21.44,45.2-65.12c-67.08-190.29-191.42-333.28-362.33-437.29C4312.43,1919.59,4268.38,1898.06,4222.39,1880.67z"/>
<path class="st0" d="M3785.68,2513.64c-4.55,3.05-8.79,6.81-13.72,9.02c-20.55,9.19-42.37,15.25-64.38,18.43
	c-43.58,6.28-66.81,29.74-71.92,73.63c-2.58,22.13-8.32,44.03-17.5,64.65c-2.55,5.73-5.43,12.25-13.13,11.71
	c-7.26-0.51-10.8-6.47-12.49-12.65c-7.03-25.63-14.56-51.18-20.13-77.15c-6.32-29.49-20.17-49.09-52.2-54.74
	c-22.57-3.98-44.48-12.21-66.34-19.56c-8.11-2.72-19.43-5.11-18.87-16.65c0.49-10.21,10.88-11.91,18.69-14.14
	c24.88-7.1,49.85-13.91,74.95-20.19c22.59-5.65,36.43-18.6,41.28-42.08c4.94-23.96,10.95-47.77,18.01-71.19
	c3.59-11.91,2.59-31.38,18.53-31.57c16.36-0.19,15.08,19.24,18.65,31.23c6.77,22.79,12.71,45.87,18.06,69.05
	c5.77,25.01,19.79,40.25,45.39,46.27c27.17,6.39,53.85,14.95,80.65,22.89C3775.8,2502.56,3782.36,2505.34,3785.68,2513.64z"/>
<path class="st0" d="M2839.92,1527.99c7.91,1.35,12.16,7,13.06,12.92c7.04,46.36,32.13,73.71,79.79,78.88
	c5.39,0.58,11.07,4.24,11.41,10.75c0.41,7.97-6.55,10.08-12.35,12.23c-9.16,3.39-18.38,6.86-27.86,9.09
	c-23.99,5.63-39.14,18.92-44.71,43.97c-2.88,12.95-4.55,33.26-19.85,33.26c-15.46-0.01-17.12-20.58-19.69-33.37
	c-6.04-30.1-27.15-39.25-53.09-45.68c-12.44-3.09-33.24-1.35-33.09-18.83c0.13-15.35,20.43-16.11,32.09-17.76
	c36.68-5.17,52.23-27.58,58.69-61.08C2826.12,1542.99,2827.23,1530.84,2839.92,1527.99z"/>
<path class="st0" d="M4520.99,1026.95c0.05,7.13-5.4,10.47-10.6,11.2c-45.34,6.35-72.59,30.71-79.6,76.92
	c-0.86,5.64-5.34,12.45-12.84,11.9c-7.48-0.55-8.88-8.05-11.38-13.64c-1.99-4.46-3.93-9.08-4.85-13.84
	c-6.15-31.99-24.58-50.82-57.43-54.54c-0.69-0.08-1.38-0.28-2.02-0.54c-9.32-3.74-24.04-3.07-24.62-15.57
	c-0.67-14.45,14.9-15.98,24.82-17.48c35.25-5.3,54.67-24.71,59.64-59.73c0.76-5.4,3.1-10.88,5.9-15.62
	c7.13-12.07,15.46-11.97,21.42,0.52c5.08,10.65,8.71,22.13,11.78,33.56c5.66,21.1,18.43,33.53,40.07,37.8
	c10.88,2.15,21.38,6.37,31.91,10.07C4517.15,1019.37,4520.54,1022.09,4520.99,1026.95z"/>
<path class="st0" d="M4780.79,2003.21c-1.01,7.5-7.27,10.24-13.04,11.86c-16.71,4.68-28.45,13.67-32.88,31.32
	c-1.3,5.2-4.47,10.56-11.17,11.09c-7.69,0.61-11.8-4.67-13.82-10.67c-5.79-17.14-15.95-28.86-34.36-32.91
	c-5.24-1.15-10.47-4.94-10.9-11.42c-0.52-7.85,5.75-11.2,11.53-13.13c17.93-5.97,28.94-17.32,35.07-35.59
	c4.25-12.67,15.7-14.2,20.84-1.36c7.9,19.74,20.6,32.47,39.93,39.84C4776.56,1994.01,4780.27,1997.51,4780.79,2003.21z"/>
<path class="st0" d="M3792.47,668.85c7.07,1.26,10.74,6.56,12.7,12.55c5.78,17.67,15.62,30.86,34.58,35.81
	c4.74,1.24,9.02,4.7,9.39,10.16c0.47,6.9-4.85,9.96-10.33,11.33c-17.12,4.26-26.86,15.69-33.04,31.45
	c-2.29,5.83-5.91,11.88-13.29,11.69c-7.52-0.19-10.1-6.58-12.23-12.6c-5.3-15.05-15.92-23.95-31.03-28.47
	c-5.89-1.76-12.39-4.38-13.3-11.79c-0.97-7.9,5.37-11.27,11.13-13.3c17.57-6.19,30.24-16.31,34.17-35.68
	C3782.28,674.68,3785.9,669.78,3792.47,668.85z"/>
<radialGradient id="SVGID_1_" cx="3826.345" cy="1729.0811" r="602.081" gradientUnits="userSpaceOnUse">
	<stop  offset="0" style="stop-color:#FFFFFF"/>
	<stop  offset="1" style="stop-color:#BBD3F0;stop-opacity:0.1"/>
</radialGradient>
<circle class="st1" cx="3826.34" cy="1729.08" r="602.08"/>
<radialGradient id="SVGID_2_" cx="3826.345" cy="1764.1299" r="281.4836" gradientUnits="userSpaceOnUse">
	<stop  offset="0" style="stop-color:#FFFFFF"/>
	<stop  offset="1" style="stop-color:#C9E0FF;stop-opacity:0.5"/>
</radialGradient>
<circle class="st2" cx="3826.34" cy="1764.13" r="281.48"/>
</svg>
