<?xml version="1.0" encoding="utf-8"?>
<!-- Generator: Adobe Illustrator 23.0.3, SVG Export Plug-In . SVG Version: 6.00 Build 0)  -->
<svg version="1.1" id="Capa_1" xmlns="http://www.w3.org/2000/svg" xmlns:xlink="http://www.w3.org/1999/xlink" x="0px" y="0px"
	 viewBox="0 0 2122 2122" style="enable-background:new 0 0 2122 2122;" xml:space="preserve">
<style type="text/css">
	.st0{fill:#D1E1EB;}
	.st1{fill:#9ECDE6;}
	.st2{fill:#FFFFFF;}
	.st3{fill:#403E91;}
	.st4{fill:#352776;}
	.st5{fill:#575EA8;}
	.st6{fill:#F39452;}
	.st7{fill:#EF7746;}
	.st8{fill:#F8B88A;}
	.st9{fill:#8F8FC6;}
</style>
<g>
	<path class="st0" d="M1276.38,844.89V584.53h25.31c43.31,0,78.75-35.44,78.75-78.75c0-43.31-35.44-78.75-78.75-78.75H819.63
		c-43.31,0-78.75,35.44-78.75,78.75c0,43.31,35.44,78.75,78.75,78.75h25.31v260.36C620.4,931.51,461.1,1149.35,461.1,1404.43
		c0,331.13,268.43,599.56,599.56,599.56s599.56-268.43,599.56-599.56C1660.22,1149.35,1500.92,931.51,1276.38,844.89z"/>
	<path class="st1" d="M971.72,521.14h-25.31c-43.31,0-78.75-35.44-78.75-78.75c0-5.25,0.54-10.39,1.54-15.36h-49.57
		c-43.31,0-78.75,35.44-78.75,78.75c0,43.31,35.44,78.75,78.75,78.75h25.31v260.36C620.4,931.51,461.1,1149.35,461.1,1404.43
		c0,331.13,268.43,599.56,599.56,599.56c63.68,0,125.02-9.96,182.59-28.35c-32.43,3.23-64.96,5.28-97.55,5.87
		c-86.12,1.54-173.24-7.17-255.65-33.11c-81.67-25.7-157.18-68.89-218.66-128.72c-70.34-68.45-119.89-154.77-146.34-249.13
		c-47.51-169.46-7.83-363.45,93.33-505.86c0,0,110.15-162.61,351.53-183.75c0.3-0.03,2.93-253.57,2.93-253.57l161.07-42.85h142.47
		h25.31c38.06,0,70.01-27.37,77.21-63.39H971.72z"/>
	<path class="st2" d="M1319.44,485.33h-257.55c-9.68,0-17.61-7.92-17.61-17.61l0,0c0-9.68,7.92-17.61,17.61-17.61h257.55
		c9.68,0,17.61,7.92,17.61,17.61l0,0C1337.05,477.41,1329.13,485.33,1319.44,485.33z"/>
	<path class="st3" d="M1550.62,1278.82c-10.38,30.32-226.09,54.53-490.73,54.53c-258.46,0-470.3-23.09-489.7-52.42
		c-9.92,39.53-15.26,80.89-15.26,123.5c0,279.31,226.42,505.73,505.73,505.73c279.31,0,505.73-226.42,505.73-505.73
		C1566.39,1361.06,1560.88,1318.99,1550.62,1278.82z"/>
	<path class="st4" d="M1062.02,1786.69c-15.78-25.92-31.54-51.85-47.57-77.61c-13.99-22.48-27.31-46.13-34.01-71.94
		c-6.42-24.7-5.73-51.06,3.99-74.83c7.89-19.29,17.57-37.8,28.08-55.78c24.31-41.6,52.85-80.71,82.75-118.43
		c14.95-18.86,30.36-37.36,46.17-55.52c-26.52,0.51-53.75,0.78-81.54,0.78c-258.46,0-470.3-23.09-489.7-52.42
		c-9.92,39.53-15.26,80.89-15.26,123.5c0,279.31,226.42,505.73,505.73,505.73c24.89,0,49.35-1.83,73.29-5.3
		C1109.97,1865.46,1085.99,1826.07,1062.02,1786.69z"/>
	<path class="st5" d="M1059.89,1333.35c264.64,0,480.35-24.21,490.73-54.53c0.26-0.76,0.43-1.52,0.43-2.29
		c0-31.38-219.9-56.82-491.16-56.82c-271.26,0-491.16,25.44-491.16,56.82c0,1.48,0.49,2.95,1.45,4.4
		C589.6,1310.26,801.43,1333.35,1059.89,1333.35z"/>
	
		<ellipse transform="matrix(0.5 -0.866 0.866 0.5 -274.6768 1609.1263)" class="st2" cx="1256.21" cy="1042.44" rx="105.73" ry="210.46"/>
	<path class="st2" d="M1526.55,1228.9c-13.7,15.1-41.07,12.58-61.11-5.62c-20.05-18.2-25.19-45.19-11.48-60.29
		c13.7-15.1,41.07-12.58,61.11,5.62C1535.12,1186.81,1540.26,1213.8,1526.55,1228.9z"/>
	<path class="st6" d="M1065.23,174.25c-111.51,13.51-203.88,15.25-212.96,4.37l10.55,248.4h390.74l19.21-298.55l-0.18,0.02
		C1262.89,141.26,1174.27,161.04,1065.23,174.25z"/>
	<path class="st7" d="M1164.24,384.44c-32.83-4.5-67.07-11.34-96.27-27.73c-11.76-6.6-22.57-15.08-30.58-26.02
		c-10.34-14.14-13.72-32-15.55-49.07c-3.67-34.33,0.15-68.57,2.43-102.85c-92.44,9.22-164.08,9.35-172.02-0.15l10.55,248.4h390.74
		l2.3-35.68C1225.23,390.47,1194.6,388.61,1164.24,384.44z"/>
	<path class="st8" d="M1065.23,174.25c109.04-13.21,197.67-32.99,207.36-45.75c0.66-0.88,0.97-1.72,0.87-2.53
		c-1.52-12.55-97.22-11.28-213.74,2.84c-116.53,14.12-209.76,35.73-208.24,48.28c0.07,0.54,0.37,1.05,0.78,1.53
		C861.34,189.49,953.72,187.76,1065.23,174.25z"/>
	<path class="st2" d="M1213.6,343.09L1213.6,343.09c-15.05-1.09-26.47-14.29-25.38-29.34l7.41-102.44
		c1.09-15.05,14.29-26.47,29.34-25.38l0,0c15.05,1.09,26.47,14.29,25.38,29.34l-7.41,102.44
		C1241.86,332.75,1228.65,344.18,1213.6,343.09z"/>
	
		<ellipse transform="matrix(0.3838 -0.9234 0.9234 0.3838 -503.6756 2242.0808)" class="st9" cx="1428.06" cy="1498.42" rx="133.82" ry="74.84"/>
	<path class="st9" d="M1361.32,1698.59c-11.38,22.51-34.1,33.94-50.75,25.53c-16.65-8.42-20.93-33.49-9.56-56
		c11.38-22.51,34.1-33.94,50.75-25.53C1368.42,1651,1372.7,1676.07,1361.32,1698.59z"/>
</g>
</svg>
