<?xml version="1.0" encoding="UTF-8"?>
<svg id="Capa_1" xmlns="http://www.w3.org/2000/svg" version="1.1" viewBox="0 0 2122 2122">
  <!-- Generator: Adobe Illustrator 29.8.7, SVG Export Plug-In . SVG Version: 2.1.1 Build 1)  -->
  <defs>
    <style>
      .st0 {
        fill: #fff;
      }

      .st1 {
        fill: #ffe882;
      }

      .st2 {
        fill: #ffd84d;
      }

      .st3 {
        fill: #f8b88a;
      }

      .st4 {
        fill: #9ecde6;
      }

      .st5 {
        fill: #f39452;
      }

      .st6 {
        fill: #fff7d1;
      }

      .st7 {
        fill: #d1e1eb;
      }

      .st8 {
        fill: #ef7746;
      }

      .st9 {
        fill: #e0a031;
      }
    </style>
  </defs>
  <path class="st7" d="M1276.38,844.89v-260.36h25.31c43.31,0,78.75-35.44,78.75-78.75s-35.44-78.75-78.75-78.75h-482.06c-43.31,0-78.75,35.44-78.75,78.75s35.44,78.75,78.75,78.75h25.31v260.36c-224.54,86.62-383.84,304.46-383.84,559.54,0,331.13,268.43,599.56,599.56,599.56s599.56-268.43,599.56-599.56c0-255.08-159.3-472.92-383.84-559.54Z"/>
  <path class="st4" d="M971.72,521.14h-25.31c-43.31,0-78.75-35.44-78.75-78.75,0-5.25.54-10.39,1.54-15.36h-49.57c-43.31,0-78.75,35.44-78.75,78.75s35.44,78.75,78.75,78.75h25.31v260.36c-224.54,86.62-383.84,304.46-383.84,559.54,0,331.13,268.43,599.56,599.56,599.56,63.68,0,125.02-9.96,182.59-28.35-32.43,3.23-64.96,5.28-97.55,5.87-86.12,1.54-173.24-7.17-255.65-33.11-81.67-25.7-157.18-68.89-218.66-128.72-70.34-68.45-119.89-154.77-146.34-249.13-47.51-169.46-7.83-363.45,93.33-505.86,0,0,110.15-162.61,351.53-183.75.3-.03,2.93-253.57,2.93-253.57l161.07-42.85h167.78c38.06,0,70.01-27.37,77.21-63.39h-407.18Z"/>
  <path class="st0" d="M1319.44,485.33h-257.55c-9.68,0-17.61-7.92-17.61-17.61h0c0-9.68,7.92-17.61,17.61-17.61h257.55c9.68,0,17.61,7.92,17.61,17.61h0c0,9.69-7.92,17.61-17.61,17.61Z"/>
  <path class="st2" d="M1550.62,1278.82c-10.38,30.32-226.09,54.53-490.73,54.53s-470.3-23.09-489.7-52.42c-9.92,39.53-15.26,80.89-15.26,123.5,0,279.31,226.42,505.73,505.73,505.73s505.73-226.42,505.73-505.73c0-43.37-5.51-85.44-15.77-125.61Z"/>
  <path class="st9" d="M1062.02,1786.69c-15.78-25.92-31.54-51.85-47.57-77.61-13.99-22.48-27.31-46.13-34.01-71.94-6.42-24.7-5.73-51.06,3.99-74.83,7.89-19.29,17.57-37.8,28.08-55.78,24.31-41.6,52.85-80.71,82.75-118.43,14.95-18.86,30.36-37.36,46.17-55.52-26.52.51-53.75.78-81.54.78-258.46,0-470.3-23.09-489.7-52.42-9.92,39.53-15.26,80.89-15.26,123.5,0,279.31,226.42,505.73,505.73,505.73,24.89,0,49.35-1.83,73.29-5.3-23.98-39.41-47.96-78.8-71.93-118.18Z"/>
  <path class="st1" d="M1059.89,1333.35c264.64,0,480.35-24.21,490.73-54.53.26-.76.43-1.52.43-2.29,0-31.38-219.9-56.82-491.16-56.82s-491.16,25.44-491.16,56.82c0,1.48.49,2.95,1.45,4.4,19.42,29.33,231.25,52.42,489.71,52.42Z"/>
  <ellipse class="st0" cx="1256.18" cy="1042.47" rx="105.73" ry="210.46" transform="translate(-274.72 1609.1) rotate(-60)"/>
  <path class="st0" d="M1526.55,1228.9c-13.7,15.1-41.07,12.58-61.11-5.62-20.05-18.2-25.19-45.19-11.48-60.29,13.7-15.1,41.07-12.58,61.11,5.62,20.05,18.2,25.19,45.19,11.48,60.29Z"/>
  <path class="st5" d="M1065.23,174.25c-111.51,13.51-203.88,15.25-212.96,4.37l10.55,248.4h390.74l19.21-298.55-.18.02c-9.7,12.77-98.32,32.55-207.36,45.76Z"/>
  <path class="st8" d="M1164.24,384.44c-32.83-4.5-67.07-11.34-96.27-27.73-11.76-6.6-22.57-15.08-30.58-26.02-10.34-14.14-13.72-32-15.55-49.07-3.67-34.33.15-68.57,2.43-102.85-92.44,9.22-164.08,9.35-172.02-.15l10.55,248.4h390.74l2.3-35.68c-30.61-.87-61.24-2.73-91.6-6.9Z"/>
  <path class="st3" d="M1065.23,174.25c109.04-13.21,197.67-32.99,207.36-45.75.66-.88.97-1.72.87-2.53-1.52-12.55-97.22-11.28-213.74,2.84-116.53,14.12-209.76,35.73-208.24,48.28.07.54.37,1.05.78,1.53,9.08,10.87,101.46,9.14,212.97-4.37Z"/>
  <path class="st0" d="M1213.6,343.09h0c-15.05-1.09-26.47-14.29-25.38-29.34l7.41-102.44c1.09-15.05,14.29-26.47,29.34-25.38h0c15.05,1.09,26.47,14.29,25.38,29.34l-7.41,102.44c-1.08,15.04-14.29,26.47-29.34,25.38Z"/>
  <ellipse class="st6" cx="1428.05" cy="1498.5" rx="133.82" ry="74.84" transform="translate(-503.78 2242.06) rotate(-67.43)"/>
  <path class="st6" d="M1361.32,1698.59c-11.38,22.51-34.1,33.94-50.75,25.53-16.65-8.42-20.93-33.49-9.56-56,11.38-22.51,34.1-33.94,50.75-25.53,16.66,8.41,20.94,33.48,9.56,56Z"/>
</svg>