<?xml version="1.0" encoding="utf-8"?>
<!-- Generator: Adobe Illustrator 23.0.3, SVG Export Plug-In . SVG Version: 6.00 Build 0)  -->
<svg version="1.1" xmlns="http://www.w3.org/2000/svg" xmlns:xlink="http://www.w3.org/1999/xlink" x="0px" y="0px"
	 viewBox="0 0 114.17 115.3" style="enable-background:new 0 0 114.17 115.3;" xml:space="preserve">
<style type="text/css">
	.st0{fill:#FFFFFF;}
	.st1{fill:#E0E8E3;}
	.st2{fill:#F7CF49;}
	.st3{fill:#F7B031;}
</style>
<g id="BACKGROUND">
</g>
<g id="OBJECTS">
	<g id="XMLID_321_">
		<g id="XMLID_331_">
			<path id="XMLID_558_" class="st0" d="M39.86,81.17c-0.15,5.66,4.4,10.52,9.55,12.87c3.46,1.58,7.47,2.32,11.08,1.16
				c3.62-1.17,6.85-4.31,6.74-8.11c4.37,3.06,10.78,2.77,14.86-0.65c4.08-3.43,5.47-9.69,3.21-14.53c-0.01-0.29,0.45-0.45,0.62-0.21
				c0.17,0.23,0.08,0.48-0.2,0.38c5.57-0.08,10.99-3.23,13.83-8.01c0.94-1.58,1.62-3.4,1.49-5.23c-0.13-1.84-0.69-3.45-2.41-4.09
				c2.33-1.18,3.16-4.35,2.23-6.78c-0.93-2.44-3.24-4.14-5.71-4.98c-2.47-0.84-4.92-0.28-7.52-0.37c1.22-2.65,2-5.5,2.33-8.4
				c0.07-0.66,0.12-1.35-0.11-1.97c-0.23-0.62-0.81-1.17-1.47-1.15c-0.66,0.02-0.95-0.12-0.64,0.47c-0.74,2.86-2.41,5.18-5.25,5.99
				c2.22-1.95,3.56-5.01,3.06-7.93c-0.5-2.92-3.03-5.48-5.99-5.64c-2.96-0.15-6.63,3.05-6.45,6c-1.04-2.88-2.15-5.87-4.39-7.94
				c-2.24-2.08-5.35-2.84-7.71-0.9c-3.23-1.98-7.5-2.13-10.85-0.37c-3.35,1.75-5.55,5.35-5.77,9.13c-2.71-4.49-8.93-6.46-13.73-4.36
				c-4.8,2.1-7.57,8.58-6.11,13.61c-1.43-1.69-4.31-1.61-5.94-0.11s-2.02,4.04-1.33,6.14c0.69,2.1,2.31,3.79,4.15,5.01
				c-1.29-0.45-2.99-0.95-4.36-0.96c-1.37-0.01-2.82,0.5-3.59,1.63c-1.39,2.04,0,4.81,1.62,6.66c2.63,3.01,5.96,5.41,9.64,6.96
				c-3.76-1.24-7.62,1.29-8.79,5.07s0.48,8.08,3.47,10.67c2.99,2.59,7.08,3.65,11.04,3.61C34.45,83.79,36.08,82.35,39.86,81.17z"/>
		</g>
		<g id="XMLID_328_">
			<path id="XMLID_122_" class="st1" d="M55.67,47.26c0.68-3.15-0.62-6.33-1.35-9.47c-0.73-3.14-0.66-6.97,1.9-8.92
				c1.7-1.29,4.08-1.35,6.11-0.69c2.03,0.66,3.78,1.95,5.49,3.22c-2.24-3.71-6.94-6.86-11.22-6.18c-4.27,0.68-7.97,4.13-8.95,8.34
				c-6.33-0.2-12.84,2.64-16.54,7.78c2.45-1.64,5.36-4.14,8.14-5.12c2.78-0.98,5.94-1.22,8.64-0.04c2.31,1.01,4.08,2.99,5.32,5.18
				C54.44,43.56,54.93,44.85,55.67,47.26z"/>
		</g>
		<g id="XMLID_325_">
			<path id="XMLID_17_" class="st1" d="M21.06,58.51c1.96,2.27,4.43,4.1,7.17,5.31c-0.91,3.5,1.04,6.99,4.22,8.74
				c3.17,1.75,7.08,1.7,10.56,0.72c0.56,2.87,2.77,5.1,5.46,6.24s5.8,1.09,8.59,0.21c2.79-0.88,5.29-2.53,7.46-4.49
				c-1.26,2.95-3.48,5.39-6.37,6.79c-2.89,1.4-6.29,1.72-9.39,0.88c-2.13-0.58-4.18-1.75-5.39-3.59c-0.8-1.21-1.19-2.65-1.37-4.09
				c-4.11,1.88-8.92,2.42-13.37,1.58c-2.27-0.43-4.7-1.42-5.67-3.52c-0.75-1.63-0.42-3.6,0.47-5.16c0.89-1.56,2.26-2.78,3.66-3.9
				C24.05,63.65,21.46,61.59,21.06,58.51z"/>
		</g>
		<g id="XMLID_320_">
			<g id="XMLID_1404_">
				<path id="XMLID_557_" class="st1" d="M87.69,56.02c0.26-2.17,0.12-4.46-0.94-6.37s-3.21-3.32-5.37-3.02
					c-1.72,0.24-3.14,1.47-4.31,2.75c-1.17,1.29-2.24,2.72-3.74,3.62c-0.45,0.27-0.91,0.51-1.36,0.69c2.82-0.06,5.62-1.22,7.57-3.26
					c0.74-0.77,1.47-1.72,2.53-1.84c0.83-0.09,1.65,0.39,2.15,1.06s0.75,1.49,0.93,2.31c1.28,5.76-0.29,12.08-4.11,16.57
					C84.62,65.4,87.13,60.73,87.69,56.02z"/>
			</g>
		</g>
		<g id="XMLID_319_">
			<path id="XMLID_555_" class="st1" d="M61.73,52.27c3.15-2.48,6.13-5.17,8.92-8.06c1.22-1.26,2.44-2.63,2.9-4.32
				c0.46-1.69-0.08-3.79-1.65-4.56c2.61,1.18,3.47,4.31,2.48,7c-0.99,2.69-3.34,4.64-5.78,6.14C66.16,49.97,63.91,50.41,61.73,52.27
				z"/>
		</g>
		<g id="XMLID_318_">
			<path id="XMLID_554_" class="st2" d="M49.67,55.73c0.52-1.71,1.35-3.33,2.44-4.75c0.35-0.45,0.87-0.94,1.42-0.76
				c0.66,0.21,0.69,1.17,0.36,1.79c-0.32,0.62-0.86,1.15-0.92,1.85c0.55-0.98,1.25-1.86,2.14-2.54c0.28-0.21,0.6-0.42,0.95-0.4
				c0.59,0.03,0.97,0.72,0.89,1.31c-0.08,0.59-0.46,1.09-0.84,1.55c0.16-0.56,0.96-0.79,1.5-0.57c0.54,0.22,0.8,0.95,0.53,1.46
				c0.5-0.67,0.84-1.27,1.56-1.69c0.72-0.42,1.71-0.5,2.35,0.04c0.64,0.54,0.62,1.76-0.15,2.09c-0.03-0.43,0.93-0.27,1.32-0.07
				c0.39,0.19,0.55,0.69,0.49,1.12c-0.06,0.43-0.3,0.81-0.53,1.18c0.3-0.63,1.47-0.65,1.93-0.13c0.45,0.52,0.43,1.33,0.13,1.96
				c-0.3,0.62-0.82,1.11-1.32,1.59c-0.49,0.48-0.99,1.01-1.21,1.66c0.48-0.31,0.74-0.24,1.3-0.29c0.57-0.05,1.21,0.29,1.3,0.85
				c0.07,0.42-0.2,0.84-0.55,1.09c-0.35,0.24-0.78,0.34-1.2,0.44c0.45,0.29,1.04,0.78,1.49,1.07c-1.75,1.98-4.45,3.08-7.09,2.9
				c0.41,0.2,0.79,0.2,1.2,0.4c-0.4,0.53-1.1,0.79-1.77,0.8c-0.67,0.01-1.32-0.19-1.96-0.41c-1.93-0.68-3.77-1.62-5.46-2.77
				c0.37-0.07,0.89,0.47,0.68,0.79c-0.21,0.32-0.69,0.36-1.03,0.19c-0.34-0.16-0.59-0.48-0.82-0.78c-0.49-0.64-0.99-1.29-1.29-2.04
				c-0.3-0.75-0.4-1.62-0.07-2.36c0.26,0.14,0.52,0.28,0.79,0.43c-1.16-1.45-1.29-3.56-0.53-5.26c0.46,0.32,0.91,0.65,1.37,0.97
				c-0.61-0.85-0.92-1.73-0.6-2.73c0.11-0.33,0.3-0.67,0.63-0.76C49.43,54.84,49.85,55.44,49.67,55.73z"/>
		</g>
		<g id="XMLID_307_">
			<g id="XMLID_317_">
				<path id="XMLID_552_" class="st3" d="M54.57,56.99c0.01-0.07,0.03-0.14,0.07-0.2c0.26-0.61-0.73-1.2-1.14-0.68
					c-0.04,0.06-0.09,0.11-0.15,0.15c-0.36,0.32-0.27,0.93,0.13,1.17C53.88,57.66,54.46,57.45,54.57,56.99z"/>
			</g>
			<g id="XMLID_316_">
				<path id="XMLID_551_" class="st3" d="M58,57.88c-0.71-0.42-1.37,0.68-0.66,1.1C58.05,59.4,58.71,58.3,58,57.88z"/>
			</g>
			<g id="XMLID_315_">
				<path id="XMLID_549_" class="st3" d="M52.83,61.21c0.04-0.31-0.11-0.62-0.38-0.8c-0.26-0.17-0.57-0.22-0.87-0.16
					c-0.54-0.06-1,0.49-1.12,0.98c-0.14,0.6,0.18,1.25,0.78,1.44c0.48,0.15,0.94,0.03,1.3-0.31C52.86,62.07,53.01,61.61,52.83,61.21
					z"/>
			</g>
			<g id="XMLID_314_">
				<path id="XMLID_548_" class="st3" d="M56.49,60.08c-0.43-0.26-1.03-0.11-1.29,0.32c-0.26,0.44-0.11,1.02,0.32,1.29
					c0.43,0.26,1.03,0.11,1.29-0.32C57.07,60.93,56.93,60.34,56.49,60.08z"/>
			</g>
			<g id="XMLID_313_">
				<path id="XMLID_546_" class="st3" d="M60.41,61.83c-0.02-0.01-0.05-0.02-0.07-0.03c-0.57-0.23-1.11,0.66-0.63,1.06
					c0.02,0.02,0.04,0.03,0.06,0.05c0.32,0.27,0.8,0.28,1.03-0.12C61.03,62.4,60.8,61.98,60.41,61.83z"/>
			</g>
			<g id="XMLID_312_">
				<path id="XMLID_545_" class="st3" d="M62.33,57c0.03-0.07,0.05-0.13,0.08-0.2c0.27-0.73-0.81-1.37-1.32-0.79
					c-0.05,0.05-0.09,0.11-0.14,0.16c-0.34,0.41-0.35,1.02,0.15,1.32C61.6,57.79,62.13,57.49,62.33,57z"/>
			</g>
			<g id="XMLID_311_">
				<path id="XMLID_542_" class="st3" d="M57.1,65.52c-0.15-0.59-0.81-0.69-1.24-0.36c-0.03,0.02-0.05,0.04-0.08,0.06
					c-0.4,0.31-0.21,1.09,0.3,1.18c0.03,0.01,0.07,0.01,0.1,0.02C56.72,66.51,57.25,66.11,57.1,65.52z"/>
			</g>
			<g id="XMLID_310_">
				<path id="XMLID_540_" class="st3" d="M54.06,63.5c-0.59-0.35-1.14,0.56-0.55,0.92C54.1,64.77,54.65,63.85,54.06,63.5z"/>
			</g>
			<g id="XMLID_309_">
				<path id="XMLID_539_" class="st3" d="M51.39,56.75c-0.39-0.23-0.87-0.02-1.01,0.4c-0.01,0.03-0.02,0.05-0.02,0.08
					c-0.19,0.62,0.64,1.12,1.1,0.66c0.02-0.02,0.04-0.04,0.06-0.06C51.82,57.51,51.78,56.98,51.39,56.75z"/>
			</g>
		</g>
	</g>
</g>
<g id="DESIGNED_BY_FREEPIK">
</g>
</svg>
